<svg width="24" height="24" viewBox="0 0 24 24" fill="none" xmlns="http://www.w3.org/2000/svg">
<path d="M21.5043 19.7915L20.4325 6.28603C20.3657 5.41594 19.6299 4.73433 18.7572 4.73433H16.6402V4.63917C16.6402 2.08111 14.5591 0 12.0011 0C9.443 0 7.36189 2.08111 7.36189 4.63917V4.73433H5.24492C4.37225 4.73433 3.63636 5.41589 3.56979 6.2842L2.49767 19.7933C2.4147 20.8749 2.78993 21.9518 3.52709 22.7476C4.26425 23.5435 5.30923 24 6.39406 24H17.608C18.6928 24 19.7378 23.5435 20.475 22.7476C21.2122 21.9517 21.5874 20.8749 21.5043 19.7915ZM8.76767 4.63917C8.76767 2.85628 10.2182 1.40578 12.0011 1.40578C13.7839 1.40578 15.2344 2.85633 15.2344 4.63917V4.73433H8.76767V4.63917ZM19.4436 21.7924C18.9647 22.3095 18.3128 22.5942 17.608 22.5942H6.39411C5.68929 22.5942 5.03745 22.3095 4.55848 21.7924C4.07956 21.2753 3.84547 20.6035 3.89928 19.9027L4.97131 6.39352C4.98218 6.25139 5.10237 6.14011 5.24492 6.14011H7.36189V7.87144C7.36189 8.25961 7.67661 8.57433 8.06478 8.57433C8.45295 8.57433 8.76767 8.25961 8.76767 7.87144V6.14011H15.2344V7.87144C15.2344 8.25961 15.5492 8.57433 15.9373 8.57433C16.3255 8.57433 16.6402 8.25961 16.6402 7.87144V6.14011H18.7572C18.8997 6.14011 19.0199 6.25144 19.031 6.39539L20.1028 19.9008C20.1567 20.6035 19.9226 21.2753 19.4436 21.7924Z" fill="black"/>
<path d="M15.1662 11.9195C14.8918 11.645 14.4467 11.645 14.1723 11.9195L11.0337 15.0581L9.82686 13.8512C9.55241 13.5767 9.10733 13.5767 8.83283 13.8512C8.55833 14.1257 8.55833 14.5707 8.83283 14.8452L10.5367 16.5491C10.6739 16.6864 10.8538 16.755 11.0337 16.755C11.2135 16.755 11.3934 16.6864 11.5306 16.5491L15.1662 12.9136C15.4407 12.639 15.4407 12.194 15.1662 11.9195Z" fill="black"/>
</svg>
