<svg width="24" height="24" viewBox="0 0 24 24" fill="none" xmlns="http://www.w3.org/2000/svg">
<g clip-path="url(#clip0_6:23)">
<path d="M21.75 20.9999H2.25001C1.0093 20.9999 0 19.9906 0 18.7499V14.9999C0 14.5853 0.335439 14.2499 0.750005 14.2499C1.99072 14.2499 3.00002 13.2406 3.00002 11.9999C3.00002 10.7592 1.99072 9.74987 0.750005 9.74987C0.335439 9.74992 0 9.41448 0 8.99992V5.24989C0 4.00918 1.0093 2.99988 2.25001 2.99988H21.75C22.9908 2.99988 24 4.00918 24 5.24989V8.99992C24 9.41448 23.6646 9.74992 23.25 9.74992C22.0093 9.74992 21 10.7592 21 11.9999C21 13.2407 22.0093 14.2499 23.25 14.2499C23.6646 14.2499 24 14.5854 24 15V18.75C24 19.9906 22.9908 20.9999 21.75 20.9999ZM1.50001 15.6745V18.7499C1.50001 19.1637 1.83621 19.4999 2.25001 19.4999H21.75C22.1638 19.4999 22.5 19.1637 22.5 18.7499V15.6745C20.7906 15.3258 19.5 13.8112 19.5 11.9999C19.5 10.1886 20.7905 8.67397 22.5 8.3253V5.24989C22.5 4.83608 22.1638 4.49989 21.75 4.49989H2.25001C1.83621 4.49989 1.50001 4.83608 1.50001 5.24989V8.32535C3.20947 8.67397 4.50003 10.1886 4.50003 11.9999C4.50003 13.8112 3.20947 15.3258 1.50001 15.6745Z" fill="black"/>
<path d="M9.04883 17.7264L13.5472 5.73068L14.9517 6.25736L10.4533 18.2531L9.04883 17.7264Z" fill="black"/>
<path d="M8.45119 12.2525C7.21047 12.2525 6.20117 11.2432 6.20117 10.0024C6.20117 8.76174 7.21047 7.75244 8.45119 7.75244C9.6919 7.75244 10.7012 8.76174 10.7012 10.0024C10.7012 11.2432 9.6919 12.2525 8.45119 12.2525ZM8.45119 9.25245C8.03738 9.25245 7.70118 9.58864 7.70118 10.0024C7.70118 10.4163 8.03738 10.7524 8.45119 10.7524C8.86499 10.7524 9.20119 10.4163 9.20119 10.0024C9.20119 9.58864 8.86499 9.25245 8.45119 9.25245Z" fill="black"/>
<path d="M16.2031 16.904C14.9624 16.904 13.9531 15.8947 13.9531 14.6539C13.9531 13.4132 14.9624 12.4039 16.2031 12.4039C17.4439 12.4039 18.4532 13.4132 18.4532 14.6539C18.4532 15.8947 17.4439 16.904 16.2031 16.904ZM16.2031 13.9039C15.7893 13.9039 15.4531 14.2401 15.4531 14.6539C15.4531 15.0678 15.7893 15.404 16.2031 15.404C16.617 15.404 16.9531 15.0678 16.9531 14.6539C16.9531 14.2401 16.617 13.9039 16.2031 13.9039Z" fill="black"/>
</g>
<defs>
<clipPath id="clip0_6:23">
<rect width="24" height="24" fill="white"/>
</clipPath>
</defs>
</svg>
