<svg width="20" height="20" viewBox="0 0 20 20" fill="none" xmlns="http://www.w3.org/2000/svg">
<g clip-path="url(#clip0_5:83)">
<path d="M20.4006 -0.000854492H10.8008V9.4108H20.4006V-0.000854492Z" fill="#891F4A"/>
<path fill-rule="evenodd" clip-rule="evenodd" d="M18.0247 2.26966C19.1763 3.39836 19.1763 5.22799 18.0247 6.35706C16.8734 7.48577 15.0072 7.48577 13.8559 6.35706C12.7043 5.22799 12.7043 3.39836 13.8559 2.26966C15.0072 1.14058 16.8734 1.14058 18.0247 2.26966Z" fill="#DB4575" fill-opacity="0.6"/>
<path d="M13.1733 7.02224C14.3246 8.15093 16.1911 8.15093 17.3423 7.02224C18.4935 5.89356 18.4935 4.06359 17.3423 2.9349C16.1911 1.80622 14.3246 1.80622 13.1733 2.9349C12.0221 4.06359 12.0221 5.89356 13.1733 7.02224Z" fill="#891F4A"/>
<path d="M20.4006 10.5873H10.8008V19.9989H20.4006V10.5873Z" fill="#8EC009"/>
<path fill-rule="evenodd" clip-rule="evenodd" d="M18.0247 12.8575C19.1763 13.9866 19.1763 15.8162 18.0247 16.9449C16.8734 18.0736 15.0072 18.0736 13.8559 16.9449C12.7043 15.8162 12.7043 13.9866 13.8559 12.8575C15.0072 11.7288 16.8734 11.7288 18.0247 12.8575Z" fill="#C5F83B" fill-opacity="0.6"/>
<path d="M13.1733 17.6104C14.3246 18.7391 16.1911 18.7391 17.3423 17.6104C18.4935 16.4817 18.4935 14.6517 17.3423 13.523C16.1911 12.3944 14.3246 12.3944 13.1733 13.523C12.0221 14.6517 12.0221 16.4817 13.1733 17.6104Z" fill="#8EC009"/>
<path d="M9.59982 10.5873H0V19.9989H9.59982V10.5873Z" fill="#FFD000"/>
<path fill-rule="evenodd" clip-rule="evenodd" d="M7.22398 12.8575C8.37525 13.9866 8.37525 15.8162 7.22398 16.9449C6.07271 18.0736 4.20613 18.0736 3.05486 16.9449C1.90359 15.8162 1.90359 13.9866 3.05486 12.8575C4.20613 11.7288 6.07271 11.7288 7.22398 12.8575Z" fill="#FFFF9C" fill-opacity="0.6"/>
<path d="M2.3784 17.6104C3.52963 18.7391 5.39615 18.7391 6.54738 17.6104C7.69862 16.4817 7.69862 14.6517 6.54738 13.523C5.39615 12.3944 3.52963 12.3944 2.3784 13.523C1.22717 14.6517 1.22717 16.4817 2.3784 17.6104Z" fill="#FFD000"/>
<path d="M9.59982 -0.00146484H0V9.41019H9.59982V-0.00146484Z" fill="#00B7E3"/>
<path d="M3.05418 6.35721C4.20541 7.48589 6.07193 7.48589 7.22316 6.35721C8.3744 5.22852 8.3744 3.39855 7.22316 2.26987C6.07193 1.14118 4.20541 1.14118 3.05418 2.26987C1.90295 3.39855 1.90295 5.22852 3.05418 6.35721Z" fill="#10E6FF"/>
<path d="M2.3784 7.02224C3.52963 8.15093 5.39615 8.15093 6.54738 7.02224C7.69862 5.89355 7.69862 4.06359 6.54738 2.9349C5.39615 1.80622 3.52963 1.80622 2.3784 2.9349C1.22717 4.06359 1.22717 5.89355 2.3784 7.02224Z" fill="#00B7E3"/>
<path fill-rule="evenodd" clip-rule="evenodd" d="M17.6552 17.2504C17.5626 17.3767 17.4591 17.4974 17.3431 17.611C16.1919 18.7397 14.3256 18.7397 13.174 17.611C12.0227 16.482 12.0227 14.6523 13.174 13.5236C13.2896 13.4103 13.4127 13.3081 13.5411 13.2177C12.7132 14.3471 12.8171 15.9298 13.8532 16.9452C14.8889 17.9606 16.5032 18.0621 17.6552 17.2504Z" fill="#7FA629"/>
<path fill-rule="evenodd" clip-rule="evenodd" d="M6.8603 17.2501C6.76769 17.3763 6.66415 17.497 6.5482 17.6107C5.39655 18.7394 3.53035 18.7394 2.37908 17.6107C1.22781 16.4816 1.22781 14.652 2.37908 13.5233C2.49466 13.41 2.61739 13.3081 2.74577 13.2177C1.91827 14.3471 2.02218 15.9294 3.05787 16.9448C4.09356 17.9602 5.70828 18.0617 6.8603 17.2501Z" fill="#D8B40C"/>
<path fill-rule="evenodd" clip-rule="evenodd" d="M6.85992 6.66254C6.76731 6.78877 6.66378 6.9091 6.5482 7.02241C5.39655 8.15111 3.53035 8.15111 2.37908 7.02241C1.22781 5.89371 1.22781 4.06371 2.37908 2.93501C2.49466 2.8217 2.61739 2.72019 2.74614 2.62939C1.91864 3.75847 2.02218 5.34116 3.05787 6.35692C4.09356 7.37232 5.70827 7.47382 6.85992 6.66254Z" fill="#0E9EC3"/>
<path fill-rule="evenodd" clip-rule="evenodd" d="M17.6548 6.66291C17.5622 6.78914 17.4587 6.90946 17.3431 7.02278C16.1919 8.15148 14.3256 8.15148 13.174 7.02278C12.0227 5.89407 12.0227 4.06408 13.174 2.93538C13.2896 2.82206 13.4127 2.71982 13.5414 2.62939C12.7132 3.75884 12.8171 5.34153 13.8532 6.35729C14.8889 7.37268 16.5032 7.47419 17.6548 6.66291Z" fill="#691D39"/>
</g>
<defs>
<clipPath id="clip0_5:83">
<rect width="20" height="20" fill="white"/>
</clipPath>
</defs>
</svg>
