<svg width="24" height="24" viewBox="0 0 24 24" fill="none" xmlns="http://www.w3.org/2000/svg">
<g clip-path="url(#clip0_5:453)">
<path d="M22.9842 0.0395014L0.532968 7.37568C-0.101085 7.58286 -0.192777 8.4453 0.384277 8.78081L8.8688 13.7144C9.13647 13.8701 9.47102 13.8513 9.71953 13.6667L12.1046 11.8955L10.3334 14.2805C10.1488 14.5291 10.13 14.8637 10.2856 15.1313L15.2192 23.6158C15.5551 24.1934 16.4174 24.1007 16.6244 23.4671L23.9606 1.01594C24.1574 0.413091 23.5841 -0.156656 22.9842 0.0395014ZM15.6892 21.3438L11.8806 14.794L16.4731 8.61001C16.7019 8.30179 16.6704 7.87246 16.399 7.60101C16.1276 7.32956 15.6981 7.29802 15.39 7.52688L9.20596 12.1194L2.6562 8.31079L22.0149 1.98511L15.6892 21.3438Z" fill="black"/>
<path d="M8.12906 16.9664L2.9886 22.1068C2.68629 22.4091 2.19609 22.4092 1.89377 22.1068C1.5914 21.8045 1.5914 21.3143 1.89377 21.012L7.03422 15.8716C7.33664 15.5693 7.82684 15.5692 8.12906 15.8716C8.43143 16.1739 8.43143 16.6641 8.12906 16.9664ZM1.3381 17.1609C1.03574 16.8586 1.03574 16.3684 1.3381 16.0661L3.36645 14.0377C3.66877 13.7353 4.15897 13.7353 4.46129 14.0377C4.76365 14.3401 4.76365 14.8302 4.46129 15.1325L2.43294 17.1609C2.13067 17.4632 1.64042 17.4632 1.3381 17.1609ZM9.96295 19.5393C10.2653 19.8416 10.2653 20.3318 9.96295 20.6341L7.93455 22.6625C7.78339 22.8137 7.58525 22.8893 7.38715 22.8893C6.7036 22.8893 6.35067 22.0567 6.83976 21.5676L8.86816 19.5393C9.17043 19.2369 9.66063 19.2369 9.96295 19.5393Z" fill="black"/>
</g>
<defs>
<clipPath id="clip0_5:453">
<rect width="24" height="24" fill="white"/>
</clipPath>
</defs>
</svg>
